<svg xmlns="http://www.w3.org/2000/svg" xmlns:xlink="http://www.w3.org/1999/xlink" width="500" zoomAndPan="magnify" viewBox="0 0 375 374.999991" height="500" preserveAspectRatio="xMidYMid meet" version="1.0"><defs><g/><clipPath id="4a42e1d908"><path d="M 9.015625 119.761719 L 165.015625 119.761719 L 165.015625 255.511719 L 9.015625 255.511719 Z M 9.015625 119.761719 " clip-rule="nonzero"/></clipPath><clipPath id="f956523317"><path d="M 51 155.457031 L 122.941406 155.457031 L 122.941406 219.207031 L 51 219.207031 Z M 51 155.457031 " clip-rule="nonzero"/></clipPath></defs><rect x="-37.5" width="450" fill="#ffffff" y="-37.499999" height="449.999989" fill-opacity="1"/><rect x="-37.5" width="450" fill="#ffffff" y="-37.499999" height="449.999989" fill-opacity="1"/><g clip-path="url(#4a42e1d908)"><path fill="#455057" d="M 126.136719 119.867188 L 48.054688 119.867188 L 9.015625 187.496094 L 48.054688 255.125 L 126.136719 255.125 L 165.179688 187.496094 Z M 122.265625 248.421875 L 51.929688 248.421875 L 16.761719 187.496094 L 51.929688 126.574219 L 122.265625 126.574219 L 157.433594 187.496094 Z M 122.265625 248.421875 " fill-opacity="1" fill-rule="nonzero"/></g><g clip-path="url(#f956523317)"><path fill="#455057" d="M 81.054688 185.566406 L 56.410156 210.210938 C 55.808594 210.8125 55.019531 211.113281 54.234375 211.113281 C 53.445312 211.113281 52.65625 210.8125 52.054688 210.210938 C 50.851562 209.007812 50.851562 207.058594 52.054688 205.855469 L 74.523438 183.386719 L 52.054688 160.917969 C 50.851562 159.714844 50.851562 157.765625 52.054688 156.5625 C 53.257812 155.359375 55.207031 155.359375 56.410156 156.5625 L 81.054688 181.207031 C 82.261719 182.414062 82.261719 184.363281 81.054688 185.566406 Z M 119.953125 213.167969 L 78.878906 213.167969 C 77.175781 213.167969 75.796875 214.546875 75.796875 216.246094 C 75.796875 217.949219 77.175781 219.328125 78.878906 219.328125 L 119.953125 219.328125 C 121.65625 219.328125 123.035156 217.949219 123.035156 216.246094 C 123.035156 214.546875 121.65625 213.167969 119.953125 213.167969 Z M 119.953125 213.167969 " fill-opacity="1" fill-rule="nonzero"/></g><g fill="#455057" fill-opacity="1"><g transform="translate(217.428564, 228.533627)"><g><path d="M 58.515625 -70.671875 L 60.015625 -0.203125 L 39.28125 0.203125 L 38.671875 -24.625 L 22.828125 -23.625 L 21.234375 -0.296875 L 2 0.09375 L 5.078125 -73.078125 L 8.96875 -77.75 L 52.4375 -79.65625 Z M 38.578125 -39.78125 L 38.078125 -59.609375 L 24.921875 -58.515625 L 23.921875 -40.765625 Z M 38.578125 -39.78125 "/></g></g></g><g fill="#455057" fill-opacity="1"><g transform="translate(279.429296, 228.533627)"><g><path d="M 40.078125 -78.359375 L 62.40625 -79.34375 L 59.515625 -0.796875 L 41.671875 -0.09375 L 23.328125 -38.984375 L 21.9375 -2 L 2 0 L 2.59375 -79.25 L 24.125 -79.25 L 39.875 -45.953125 Z M 40.078125 -78.359375 "/></g></g></g><path stroke-linecap="butt" transform="matrix(0.75, 0, 0, 0.75, 185.212142, 125.871393)" fill="none" stroke-linejoin="miter" d="M 114.243193 37.770437 L 116.25361 131.739194 L 88.607775 132.260027 L 87.795275 99.161066 L 66.670273 100.4944 L 64.529648 131.608985 L 38.89423 132.129819 L 43.014022 34.588146 L 48.206731 28.327728 L 106.128609 25.796478 Z M 87.665067 78.978773 L 87.019233 52.530855 L 69.46194 53.994397 L 68.133815 77.650648 Z M 172.347364 27.546478 L 202.102574 26.218353 L 198.23799 130.926694 L 174.456739 131.869402 L 149.987987 80.015232 L 148.139029 129.338152 L 121.560902 131.99961 L 122.342152 26.348562 L 151.060904 26.348562 L 172.050489 70.73919 Z M 172.347364 27.546478 " stroke="#455057" stroke-width="4.984463" stroke-opacity="1" stroke-miterlimit="4"/></svg>